# xmcd
# 
# Track frame offsets:
#     183
#     13383
#     30290
#     44610
#     64818
#     78280
#     100638
#     111625
#     128875
#     141320
# 
# Disc length: 2094
# 
# Revision: 1
# Processed by: cddbd v1.5.2PL0 Copyright (c) Steve Scherf et al.
# Submitted via: BonkEnc v1.0.8
# 
DISCID=89082c0a
DTITLE=Barry White - I Love To Sing The Songs
DYEAR=0
DGENRE=
TTITLE0=Midnight And You
TTITLE1=Heavenly, Thats What You Are
TTITLE2=Honey Please Cant You See
TTITLE3=Lady Sweet Lady
TTITLE4=My Buddy
TTITLE5=Shadows Of Love
TTITLE6=Baby Blues
TTITLE7=Bring Back My Yesterday
TTITLE8=I Love To Sing The Songs
TTITLE9=Playing Your Game
EXTD=
EXTT0=
EXTT1=
EXTT2=
EXTT3=
EXTT4=
EXTT5=
EXTT6=
EXTT7=
EXTT8=
EXTT9=
PLAYORDER=
